<?xml version="1.0" encoding="UTF-8" standalone="no"?>
<!DOCTYPE svg PUBLIC "-//W3C//DTD SVG 1.1//EN" "http://www.w3.org/Graphics/SVG/1.1/DTD/svg11.dtd">
<svg width="100%" height="100%" viewBox="0 0 1552 174" version="1.1" xmlns="http://www.w3.org/2000/svg" xmlns:xlink="http://www.w3.org/1999/xlink" xml:space="preserve" style="fill-rule:evenodd;clip-rule:evenodd;stroke-linejoin:round;stroke-miterlimit:1.41421;">
    <g transform="matrix(1,0,0,1,-377.483,-1097.59)">
        <text x="586.261px" y="1232.02px" style="font-family:'Lato-Semibold', 'Lato', sans-serif;font-weight:600;font-size:181.665px;">st<tspan x="731.32px " y="1232.02px ">o</tspan>s</text>
        <text x="914.348px" y="1232.02px" style="font-family:'Lato-Light', 'Lato', sans-serif;font-weight:300;font-size:181.665px;">prz<tspan x="1157.51px " y="1232.02px ">e</tspan>pełnion<tspan x="1838.2px " y="1232.02px ">y</tspan></text>
    </g>
    <g transform="matrix(0.526385,0,0,0.526385,-197.233,-347.71)">
        <path d="M690.504,867.628L650.123,867.628L650.123,724.262L415.075,724.262L415.075,867.628L374.694,867.628L374.694,684.166L690.504,684.166L690.504,867.628Z" style="fill:rgb(235,235,235);"/>
        <g transform="matrix(0.976086,0,0,1,15.0486,0)">
            <rect x="434.579" y="747.174" width="194.71" height="28.723" style="fill:rgb(0,210,255);"/>
        </g>
        <g transform="matrix(0.974349,0.0582043,-0.0596303,0.998221,61.3831,19.8893)">
            <rect x="434.579" y="747.174" width="194.71" height="28.723" style="fill:rgb(0,210,255);"/>
        </g>
        <g transform="matrix(0.965143,0.145752,-0.149323,0.988788,129.058,32.5266)">
            <rect x="434.579" y="747.174" width="194.71" height="28.723" style="fill:rgb(0,210,255);"/>
        </g>
        <g transform="matrix(0.946819,0.237231,-0.244248,0.974826,200.016,45.1924)">
            <rect x="434.579" y="747.174" width="194.71" height="28.723" style="fill:rgb(0,210,255);"/>
        </g>
    </g>
</svg>
